<?xml version="1.0" encoding="UTF-8"?>
<svg xmlns="http://www.w3.org/2000/svg" id="Layer_1" data-name="Layer 1" viewBox="0 0 24 24">
  <path d="M21.797,3.714c-.109-.32-.373-.564-.701-.647-.172-.043-4.261-1.066-9.096-1.066S3.077,3.022,2.905,3.066c-.33,.083-.595,.329-.703,.651-.049,.146-1.203,3.635-1.203,8.283,0,4.688,1.154,8.141,1.204,8.286,.109,.32,.373,.564,.701,.647,.171,.043,4.26,1.066,9.095,1.066s8.923-1.022,9.095-1.066c.33-.083,.595-.329,.703-.651,.049-.146,1.202-3.635,1.202-8.283,0-4.688-1.154-8.141-1.203-8.286ZM3,12c0-3.302,.64-6.019,.943-7.12,.751-.162,2.217-.448,4.046-.649l.01,15.54c-1.835-.202-3.306-.489-4.058-.651-.303-1.093-.942-3.792-.942-7.12Zm17.057,7.12c-1.25,.27-4.479,.88-8.057,.88-.684,0-1.354-.022-2-.06l-.01-15.879c.649-.038,1.323-.061,2.01-.061,3.586,0,6.812,.611,8.059,.88,.303,1.093,.941,3.792,.941,7.12,0,3.302-.64,6.019-.943,7.12Z"/>
  <path d="M6.021,10.011h-.468c-.552,0-1,.448-1,1s.448,1,1,1h.468c.552,0,1-.448,1-1s-.448-1-1-1Z"/>
  <path d="M5.553,8h.468c.552,0,1-.448,1-1s-.448-1-1-1h-.468c-.552,0-1,.448-1,1s.448,1,1,1Z"/>
  <path d="M6.021,14.021h-.468c-.552,0-1,.448-1,1s.448,1,1,1h.468c.552,0,1-.448,1-1s-.448-1-1-1Z"/>
</svg>
